<?xml version="1.0" encoding="UTF-8"?>
<svg id="Camada_1" data-name="Camada 1" xmlns="http://www.w3.org/2000/svg" viewBox="0 0 236.1 236.1">
  <g>
    <path d="M22.94,97.55l-.62-6.97,18.19-1.61c21.58-1.91,39.49-17.34,44.58-38.39l5.47-22.64,6.8,1.64-5.47,22.64c-5.79,23.98-26.2,41.55-50.77,43.72l-18.19,1.61Z"/>
    <path d="M213.16,97.55l-18.19-1.61c-24.57-2.17-44.97-19.74-50.77-43.72l-5.47-22.64,6.8-1.64,5.47,22.64c5.09,21.05,23,36.48,44.58,38.39l18.19,1.61-.62,6.97Z"/>
    <path d="M145.53,208.17l-6.8-1.64,5.47-22.64c5.79-23.98,26.2-41.55,50.77-43.72l18.19-1.61.62,6.97-18.19,1.61c-21.58,1.91-39.49,17.34-44.58,38.39l-5.47,22.64Z"/>
    <path d="M90.57,208.17l-5.47-22.64c-5.09-21.05-23-36.48-44.58-38.39l-18.19-1.61.62-6.97,18.19,1.61c24.57,2.17,44.97,19.74,50.77,43.72l5.47,22.64-6.8,1.64Z"/>
  </g>
  <path d="M118.05,136.6c-10.23,0-18.55-8.32-18.55-18.55s8.32-18.55,18.55-18.55,18.55,8.32,18.55,18.55-8.32,18.55-18.55,18.55ZM118.05,106.51c-6.37,0-11.55,5.18-11.55,11.55s5.18,11.55,11.55,11.55,11.55-5.18,11.55-11.55-5.18-11.55-11.55-11.55Z"/>
</svg>